<svg width="59" height="69" viewBox="0 0 59 69" fill="none" xmlns="http://www.w3.org/2000/svg">
<path d="M28.0524 33.6953C27.9281 33.2633 27.7535 32.8815 27.5286 32.5501C27.3037 32.2127 27.0285 31.9286 26.7029 31.6978C26.3833 31.4611 26.0164 31.2805 25.6021 31.1562C25.1937 31.032 24.7409 30.9698 24.2438 30.9698C23.3146 30.9698 22.4978 31.2006 21.7935 31.6623C21.0951 32.1239 20.5506 32.7957 20.16 33.6776C19.7694 34.5535 19.574 35.6248 19.574 36.8913C19.574 38.1579 19.7664 39.2351 20.1511 40.1229C20.5358 41.0107 21.0803 41.6883 21.7846 42.1559C22.4889 42.6175 23.3205 42.8484 24.2793 42.8484C25.1493 42.8484 25.8921 42.6945 26.5076 42.3867C27.1291 42.073 27.6026 41.6321 27.9281 41.0639C28.2595 40.4957 28.4252 39.824 28.4252 39.0487L29.2065 39.1641H24.519V36.2699H32.1273V38.5604C32.1273 40.1584 31.79 41.5315 31.1152 42.6797C30.4405 43.822 29.5113 44.7038 28.3276 45.3253C27.1439 45.9408 25.7885 46.2486 24.2615 46.2486C22.557 46.2486 21.0596 45.8728 19.7694 45.1211C18.4791 44.3635 17.473 43.2893 16.7509 41.8984C16.0347 40.5017 15.6767 38.8445 15.6767 36.9268C15.6767 35.4531 15.8897 34.1392 16.3159 32.9851C16.7479 31.825 17.3516 30.8426 18.127 30.0376C18.9023 29.2327 19.8049 28.6201 20.8347 28.1999C21.8645 27.7797 22.9802 27.5696 24.1816 27.5696C25.2115 27.5696 26.1703 27.7205 27.0581 28.0224C27.9458 28.3183 28.733 28.7385 29.4196 29.283C30.112 29.8275 30.6773 30.4756 31.1152 31.2273C31.5532 31.973 31.8343 32.7957 31.9586 33.6953H28.0524ZM51.7229 36.9091C51.7229 38.8918 51.3471 40.5786 50.5954 41.9695C49.8497 43.3603 48.8317 44.4227 47.5415 45.1566C46.2571 45.8846 44.813 46.2486 43.2091 46.2486C41.5933 46.2486 40.1433 45.8816 38.8589 45.1477C37.5746 44.4138 36.5596 43.3514 35.8138 41.9606C35.0681 40.5697 34.6952 38.8859 34.6952 36.9091C34.6952 34.9264 35.0681 33.2396 35.8138 31.8487C36.5596 30.4579 37.5746 29.3984 38.8589 28.6705C40.1433 27.9366 41.5933 27.5696 43.2091 27.5696C44.813 27.5696 46.2571 27.9366 47.5415 28.6705C48.8317 29.3984 49.8497 30.4579 50.5954 31.8487C51.3471 33.2396 51.7229 34.9264 51.7229 36.9091ZM47.8256 36.9091C47.8256 35.6248 47.6332 34.5417 47.2485 33.6598C46.8697 32.7779 46.3341 32.1091 45.6416 31.6534C44.9491 31.1977 44.1383 30.9698 43.2091 30.9698C42.2799 30.9698 41.469 31.1977 40.7765 31.6534C40.0841 32.1091 39.5455 32.7779 39.1608 33.6598C38.782 34.5417 38.5926 35.6248 38.5926 36.9091C38.5926 38.1934 38.782 39.2765 39.1608 40.1584C39.5455 41.0402 40.0841 41.709 40.7765 42.1648C41.469 42.6205 42.2799 42.8484 43.2091 42.8484C44.1383 42.8484 44.9491 42.6205 45.6416 42.1648C46.3341 41.709 46.8697 41.0402 47.2485 40.1584C47.6332 39.2765 47.8256 38.1934 47.8256 36.9091Z" fill="#0072BC"/>
<path d="M0 59.8672L15 68.5274L15 51.2069L0 59.8672ZM58.1055 58.3672L13.5 58.3672L13.5 61.3672L58.1055 61.3672L58.1055 58.3672Z" fill="#BC0000"/>
<path d="M15.0831 4V6.1H23.2831V4H15.0831ZM25.4631 7.96V10.04H30.9431V7.96H25.4631ZM14.5231 7.94V10.06H23.7831V7.94H14.5231ZM19.7431 12.22V14.3H23.6031V12.22H19.7431ZM18.0631 2.08V9.08H20.3231V2.08H18.0631ZM18.5631 9.3V18.2H20.7631V9.3H18.5631ZM24.3631 2.78V4.9H29.6431V10.54H31.9631V2.78H24.3631ZM24.5431 7.96V14.16C24.5431 16.46 25.2231 17.1 27.4431 17.1C27.9031 17.1 29.7831 17.1 30.2831 17.1C32.2231 17.1 32.8431 16.28 33.1031 13.26C32.4831 13.12 31.4831 12.74 31.0031 12.36C30.9231 14.6 30.8031 14.96 30.0831 14.96C29.6231 14.96 28.1231 14.96 27.7631 14.96C26.9831 14.96 26.8431 14.86 26.8431 14.14V7.96H24.5431ZM17.0831 13.18L15.3631 13.68C16.7431 19.3 19.3431 20.3 24.6231 20.3H32.3831C32.5431 19.58 32.9431 18.46 33.3231 17.92C31.5031 18.02 26.1631 18.02 24.6231 18C20.4031 18 18.1431 17.38 17.0831 13.18ZM15.2231 11.22C15.1831 14.68 14.9831 18.02 13.9831 20.04C14.5231 20.26 15.5831 20.78 16.0031 21.06C17.0231 18.76 17.3231 15.2 17.4231 11.38L15.2231 11.22ZM44.2031 11.48V20.78H46.3831V13.64H50.1031V20.7H52.3831V11.48H44.2031ZM46.8631 2.04V12.06H49.2031V2.04H46.8631ZM48.2631 6.16V8.38H53.0831V6.16H48.2631ZM45.3431 17.84V20.02H51.1631V17.84H45.3431ZM36.8031 4.24H41.6631V8.6H36.8031V4.24ZM35.0231 2.62V10.22H43.5231V2.62H35.0231ZM36.7631 5.1C37.0631 6.02 37.3031 7.22 37.3431 8.02L38.3831 7.68C38.3231 6.92 38.0631 5.72 37.7431 4.8L36.7631 5.1ZM37.2431 16.56C37.4631 17.68 37.6231 19.12 37.5831 20.08L39.1231 19.9C39.1231 18.94 38.9631 17.5 38.7031 16.38L37.2431 16.56ZM39.2431 16.48C39.6231 17.54 39.9831 18.94 40.0631 19.84L41.5431 19.52C41.4431 18.62 41.0631 17.26 40.6631 16.22L39.2431 16.48ZM41.2031 16.3C41.8031 17.3 42.4231 18.64 42.6631 19.52L44.1631 18.9C43.9231 18.02 43.2831 16.74 42.6231 15.78L41.2031 16.3ZM35.5031 16.44C35.3031 17.76 34.8631 19.16 34.1231 20L35.6831 20.8C36.5031 19.88 36.8631 18.36 37.1031 16.92L35.5031 16.44ZM40.6831 4.78C40.5231 5.62 40.1631 6.9 39.8831 7.72L40.7631 8.04C41.1031 7.32 41.5031 6.16 41.8831 5.2L40.6831 4.78ZM34.5431 13.96L34.6231 15.98C37.0631 15.86 40.4831 15.7 43.7431 15.5L43.8031 13.64C40.4231 13.78 36.8831 13.9 34.5431 13.96ZM35.0431 11.08V12.9H43.4631V11.08H35.0431ZM38.4631 3.44V9.48H38.1431V14.7H40.2431V9.48H39.9231V3.44H38.4631Z" fill="black"/>
</svg>
