<svg width="138" height="46" viewBox="0 0 138 46" fill="none" xmlns="http://www.w3.org/2000/svg">
<rect x="1.5" y="1.5" width="134.695" height="42.8984" fill="#D9D9D9" stroke="black" stroke-width="3"/>
<path d="M50.4575 22.1481V29.4481H52.1175V22.1481H50.4575ZM52.4375 16.3081H54.5775V18.9081H52.4375V16.3081ZM50.5175 14.3081V20.8881H56.5975V14.3081H50.5175ZM52.8975 20.2081V29.2881H54.8375V20.2081H52.8975ZM49.4575 28.8481L49.9575 31.0481C52.0175 30.4881 54.6975 29.7681 57.1975 29.0681L56.9175 27.0481C54.2175 27.7481 51.3375 28.4481 49.4575 28.8481ZM53.9775 22.8081V24.8881H56.6975V22.8081H53.9775ZM62.5775 13.3281V28.7081C62.5775 31.1881 63.0375 31.8681 64.7575 31.8681C65.0975 31.8681 65.9575 31.8681 66.3175 31.8681C67.7775 31.8681 68.3175 30.9081 68.5375 28.4481C67.9175 28.3081 67.0775 27.9081 66.5775 27.5281C66.5175 29.2281 66.4375 29.7281 66.1175 29.7281C65.9575 29.7281 65.3375 29.7281 65.1975 29.7281C64.8775 29.7281 64.8175 29.6081 64.8175 28.7081V13.3281H62.5775ZM56.3975 16.8881C57.1175 18.2281 57.7975 20.0281 58.0175 21.2081L60.0175 20.3081C59.7575 19.1281 59.0575 17.3881 58.2575 16.0681L56.3975 16.8881ZM55.8575 24.9081L57.1575 27.1081C58.1575 26.2881 59.2775 25.3881 60.3175 24.4881L59.7375 22.7681C58.2975 23.6081 56.8375 24.4481 55.8575 24.9081ZM66.0975 15.8681C65.6775 17.2481 64.8975 19.0881 64.2575 20.2881L65.9375 21.1681C66.6575 20.1081 67.4975 18.4081 68.3175 16.9481L66.0975 15.8681ZM63.7175 23.6681C64.8375 24.6281 66.3175 25.9681 66.9775 26.8281L68.5575 25.1281C67.8375 24.3081 66.2975 23.0281 65.1975 22.1681L63.7175 23.6681ZM59.3575 13.3281V21.8681C59.3575 24.9481 59.1775 28.7481 56.1975 30.4081C56.6975 30.8281 57.4175 31.6681 57.7375 32.1481C61.0375 29.8881 61.5375 25.6681 61.5375 21.8681V13.3281H59.3575ZM74.2375 21.1481H69.6975V23.3681H71.9375V28.5081H74.2375V21.1481ZM74.2375 27.5681H72.1575C71.2775 28.3081 70.2975 29.0281 69.4575 29.5681L70.5975 31.9481C71.5975 31.0881 72.4375 30.3281 73.2375 29.5481C74.4375 31.0881 76.0575 31.6681 78.4575 31.7681C80.8975 31.8881 85.1575 31.8481 87.6575 31.7281C87.7575 31.0281 88.1375 29.9281 88.3975 29.3881C85.6175 29.6081 80.8775 29.6681 78.4775 29.5481C76.4175 29.4681 74.9975 28.8881 74.2375 27.5681ZM69.7575 15.2081C70.8975 16.1881 72.2375 17.5681 72.7775 18.5481L74.7575 17.0281C74.1375 16.0881 72.7375 14.7481 71.5975 13.8681L69.7575 15.2081ZM75.6575 20.0881V28.8281H77.7375V21.9081H86.4575V20.0881H75.6575ZM80.4375 16.9481V20.7881H82.1175V18.4481H84.5575V16.9481H80.4375ZM77.1575 13.9481V20.5881H79.2375V15.7081H83.6575V20.5881H85.8175V13.9481H77.1575ZM79.8375 22.7281V24.2681H82.2975V25.6481H79.8375V27.1481H84.0375V22.7281H79.8375ZM85.1175 20.0881V26.7681C85.1175 26.9681 85.0375 27.0281 84.8375 27.0281C84.6575 27.0281 84.0175 27.0281 83.4375 27.0081C83.6775 27.5281 83.9375 28.3281 84.0175 28.8881C85.0975 28.8881 85.9175 28.8681 86.5175 28.5681C87.1375 28.2481 87.2775 27.7281 87.2775 26.7881V20.0881H85.1175ZM78.7575 22.7281V27.7681H80.4975V22.7281H78.7575Z" fill="black"/>
</svg>
