<svg width="146" height="54" viewBox="0 0 146 54" fill="none" xmlns="http://www.w3.org/2000/svg">
<g filter="url(#filter0_d_42_356)">
<rect x="4" width="137.695" height="45.8984" fill="#D9D9D9"/>
<rect x="5.5" y="1.5" width="134.695" height="42.8984" stroke="black" stroke-width="3"/>
</g>
<rect x="11.8359" y="8.8125" width="121.047" height="29.25" stroke="black" stroke-width="2" stroke-dasharray="6 6"/>
<path d="M64.0225 23.0681V24.8081H71.5225V23.0681H64.0225ZM64.0225 26.2281V27.9881H71.5225V26.2281H64.0225ZM63.9825 29.3881V31.3681H72.4425V29.3881H63.9825ZM61.0425 15.2081V18.8681H63.0825V17.2281H70.2225V18.8681H72.3425V15.2081H61.0425ZM66.7425 21.3881V30.3281H68.9425V21.3881H66.7425ZM64.7625 19.7281H64.5425L62.5225 21.8081V32.1481H64.7625V21.7281H71.9625V19.7281H64.7625ZM65.8225 13.3281C64.9825 17.0681 63.2025 20.1081 60.4625 21.9081C60.9425 22.3081 61.7625 23.2481 62.0825 23.7081C65.0225 21.5481 67.0225 18.0881 68.1025 13.7481L65.8225 13.3281ZM67.9625 17.7081C67.7425 18.5881 67.2825 19.8081 66.8825 20.6281L68.6825 21.0881C69.1225 20.3481 69.6625 19.2681 70.1825 18.1681L67.9625 17.7081ZM54.0025 14.5281V16.7081H61.2225V14.5281H54.0025ZM56.2625 20.4081V22.4881H58.8825V27.6681H56.2625V29.7281H60.9025V20.4081H56.2625ZM56.0625 15.6881C55.6625 19.3481 54.8825 22.8081 53.3225 25.0081C53.7425 25.5481 54.3825 26.7681 54.6025 27.3281C56.6425 24.6081 57.7225 20.3681 58.3225 16.0481L56.0625 15.6881ZM55.3225 20.4081V31.2681H57.2625V20.4081H55.3225ZM77.5225 19.3881V21.6681H88.5825V19.3881H77.5225ZM83.0425 24.1881V26.4281H89.8025V24.1881H83.0425ZM81.7825 20.7081V30.0681L84.3025 30.3681V20.7081H81.7825ZM77.0025 22.7881C76.6625 26.2281 75.6625 29.0081 73.5025 30.6081C74.0625 30.9681 75.0825 31.8281 75.4825 32.2481C77.7625 30.2881 79.0025 27.1081 79.5225 23.0481L77.0025 22.7881ZM78.9425 25.2881L76.9825 25.9481C78.7025 30.9881 81.8225 31.9281 86.4425 31.9281H91.4825C91.5825 31.2081 91.9825 30.0481 92.3225 29.4881C90.9825 29.5281 87.6425 29.5281 86.5825 29.5281C83.0225 29.5281 80.2225 28.9681 78.9425 25.2881ZM81.7425 13.3681V17.0281H84.3025V13.3681H81.7425ZM74.4625 15.3881V20.4081H76.8225V17.6681H89.1825V20.4081H91.6625V15.3881H74.4625Z" fill="black"/>
<defs>
<filter id="filter0_d_42_356" x="0" y="0" width="145.695" height="53.8984" filterUnits="userSpaceOnUse" color-interpolation-filters="sRGB">
<feFlood flood-opacity="0" result="BackgroundImageFix"/>
<feColorMatrix in="SourceAlpha" type="matrix" values="0 0 0 0 0 0 0 0 0 0 0 0 0 0 0 0 0 0 127 0" result="hardAlpha"/>
<feOffset dy="4"/>
<feGaussianBlur stdDeviation="2"/>
<feComposite in2="hardAlpha" operator="out"/>
<feColorMatrix type="matrix" values="0 0 0 0 0 0 0 0 0 0 0 0 0 0 0 0 0 0 0.25 0"/>
<feBlend mode="normal" in2="BackgroundImageFix" result="effect1_dropShadow_42_356"/>
<feBlend mode="normal" in="SourceGraphic" in2="effect1_dropShadow_42_356" result="shape"/>
</filter>
</defs>
</svg>
