<svg width="146" height="54" viewBox="0 0 146 54" fill="none" xmlns="http://www.w3.org/2000/svg">
<g filter="url(#filter0_d_42_364)">
<rect x="4" width="137.695" height="45.8984" fill="#D9D9D9"/>
<rect x="5.5" y="1.5" width="134.695" height="42.8984" stroke="black" stroke-width="3"/>
</g>
<rect x="11.8359" y="8.8125" width="121.047" height="29.25" stroke="black" stroke-width="2" stroke-dasharray="6 6"/>
<path d="M61.3825 14.8881V16.5881H71.9825V14.8881H61.3825ZM61.0425 19.7081V21.4081H72.3625V19.7081H61.0425ZM60.9625 27.2081V28.9081H72.4025V27.2081H60.9625ZM61.8425 17.3081V18.9281H71.6825V17.3081H61.8425ZM63.5625 13.3481V20.4681H65.6425V13.3481H63.5625ZM67.7025 13.3481V20.4681H69.8225V13.3481H67.7025ZM65.6225 20.4881V27.6681H67.7025V20.4881H65.6225ZM69.2825 22.1481V29.9281C69.2825 30.1681 69.2025 30.2281 68.9425 30.2481C68.7025 30.2481 67.8425 30.2481 67.0625 30.2081C67.3225 30.7481 67.5825 31.5681 67.6825 32.1281C68.9825 32.1281 69.9225 32.1281 70.6025 31.8081C71.2625 31.4881 71.4625 30.9481 71.4625 29.9481V22.1481H69.2825ZM62.0225 22.1481V32.1681H64.1425V23.8481H70.2025V22.1481H62.0225ZM63.0825 24.7481V26.2281H70.2025V24.7481H63.0825ZM55.5225 27.1881C55.1425 28.6081 54.3625 30.0481 53.4425 30.9881C53.9425 31.2681 54.8225 31.8481 55.2425 32.1681C56.1825 31.0881 57.1025 29.3681 57.6225 27.6881L55.5225 27.1881ZM57.8825 27.9081C58.5225 28.9681 59.2425 30.3881 59.5425 31.2881L61.3825 30.4081C61.0625 29.5281 60.3225 28.1681 59.6425 27.1481L57.8825 27.9081ZM56.6025 19.6281H58.5825V21.4881H56.6025V19.6281ZM56.6025 23.2481H58.5825V25.1481H56.6025V23.2481ZM56.6025 16.0081H58.5825V17.8481H56.6025V16.0081ZM54.5625 14.0881V27.0481H60.6825V14.0881H54.5625ZM86.2225 15.9681H88.7425V17.3281H86.2225V15.9681ZM81.7825 15.9681H84.2225V17.3281H81.7825V15.9681ZM77.3825 15.9681H79.7825V17.3281H77.3825V15.9681ZM75.1625 14.1881V19.1281H91.0625V14.1881H75.1625ZM78.6625 23.8681H87.4625V24.8281H78.6625V23.8681ZM78.6625 26.2681H87.4625V27.2481H78.6625V26.2681ZM78.6625 21.4681H87.4625V22.4481H78.6625V21.4681ZM76.2625 19.9481V28.7681H89.9825V19.9481H76.2625ZM84.1825 29.8281C86.3625 30.5481 88.5825 31.5081 89.8225 32.1481L92.4425 30.9481C90.9025 30.2681 88.3225 29.3081 86.0825 28.6081L84.1825 29.8281ZM79.7425 28.5681C78.3425 29.3481 75.9225 30.0681 73.7425 30.4481C74.2825 30.8681 75.1225 31.7281 75.5225 32.2081C77.6025 31.6481 80.2625 30.6481 81.9425 29.5681L79.7425 28.5681Z" fill="black"/>
<defs>
<filter id="filter0_d_42_364" x="0" y="0" width="145.695" height="53.8984" filterUnits="userSpaceOnUse" color-interpolation-filters="sRGB">
<feFlood flood-opacity="0" result="BackgroundImageFix"/>
<feColorMatrix in="SourceAlpha" type="matrix" values="0 0 0 0 0 0 0 0 0 0 0 0 0 0 0 0 0 0 127 0" result="hardAlpha"/>
<feOffset dy="4"/>
<feGaussianBlur stdDeviation="2"/>
<feComposite in2="hardAlpha" operator="out"/>
<feColorMatrix type="matrix" values="0 0 0 0 0 0 0 0 0 0 0 0 0 0 0 0 0 0 0.25 0"/>
<feBlend mode="normal" in2="BackgroundImageFix" result="effect1_dropShadow_42_364"/>
<feBlend mode="normal" in="SourceGraphic" in2="effect1_dropShadow_42_364" result="shape"/>
</filter>
</defs>
</svg>
