<svg width="503" height="221" viewBox="0 0 503 221" fill="none" xmlns="http://www.w3.org/2000/svg">
<g filter="url(#filter0_d_42_363)">
<rect x="4" width="495" height="213" fill="#D9D9D9"/>
<rect x="5.5" y="1.5" width="492" height="210" stroke="black" stroke-width="3"/>
</g>
<rect x="15" y="12" width="473" height="30" fill="#0072BC"/>
<path d="M29.4 17.8V20.08H37.16V17.8H29.4ZM29.18 24.52V26.76H35.52V24.52H29.18ZM31.36 19.32V24.36C31.36 27.56 31.06 31.3 28.2 34.12C28.76 34.48 29.58 35.3 29.96 35.82C33.28 32.58 33.64 28.18 33.64 24.38V19.32H31.36ZM35.92 17.8C35.94 26.3 35.78 34.74 38.18 35.64C39.46 36.2 40.52 35.52 40.84 32.38C40.5 32.02 39.9 31.06 39.52 30.44C39.48 31.82 39.34 33.22 39.22 33.18C38.26 32.9 38.18 24.62 38.38 17.8H35.92ZM22.54 23.16V24.96H28.58V23.16H22.54ZM22.6 17.64V19.46H28.52V17.64H22.6ZM22.54 25.88V27.7H28.58V25.88H22.54ZM21.58 20.34V22.24H29.24V20.34H21.58ZM23.58 28.66V30.56H26.56V32.84H23.58V34.74H28.6V28.66H23.58ZM22.5 28.66V35.54H24.52V28.66H22.5ZM46.7 30.1V33C46.7 35.08 47.32 35.74 49.92 35.74C50.46 35.74 52.64 35.74 53.2 35.74C55.14 35.74 55.8 35.14 56.1 32.74C55.46 32.62 54.44 32.26 53.96 31.92C53.86 33.4 53.72 33.62 52.96 33.62C52.42 33.62 50.62 33.62 50.2 33.62C49.24 33.62 49.08 33.54 49.08 32.98V30.1H46.7ZM48.92 29.64C49.96 30.5 51.14 31.74 51.64 32.6L53.52 31.32C52.96 30.42 51.74 29.26 50.68 28.46L48.92 29.64ZM55.14 30.68C56.54 32.02 57.98 33.86 58.52 35.16L60.6 33.82C60 32.46 58.46 30.72 57.06 29.46L55.14 30.68ZM43.74 29.72C43.32 31.22 42.52 32.76 41.44 33.72L43.44 35.12C44.66 33.94 45.38 32.14 45.88 30.5L43.74 29.72ZM47.02 23.08H55.12V24.08H47.02V23.08ZM47.02 25.82H55.12V26.82H47.02V25.82ZM47.02 20.36H55.12V21.36H47.02V20.36ZM44.7 18.54V28.66H57.54V18.54H44.7ZM49.76 16.8C49.64 17.48 49.38 18.4 49.14 19.1L51.36 19.54C51.7 18.94 52.22 18.12 52.68 17.16L49.76 16.8Z" fill="white"/>
<defs>
<filter id="filter0_d_42_363" x="0" y="0" width="503" height="221" filterUnits="userSpaceOnUse" color-interpolation-filters="sRGB">
<feFlood flood-opacity="0" result="BackgroundImageFix"/>
<feColorMatrix in="SourceAlpha" type="matrix" values="0 0 0 0 0 0 0 0 0 0 0 0 0 0 0 0 0 0 127 0" result="hardAlpha"/>
<feOffset dy="4"/>
<feGaussianBlur stdDeviation="2"/>
<feComposite in2="hardAlpha" operator="out"/>
<feColorMatrix type="matrix" values="0 0 0 0 0 0 0 0 0 0 0 0 0 0 0 0 0 0 0.25 0"/>
<feBlend mode="normal" in2="BackgroundImageFix" result="effect1_dropShadow_42_363"/>
<feBlend mode="normal" in="SourceGraphic" in2="effect1_dropShadow_42_363" result="shape"/>
</filter>
</defs>
</svg>
