<svg width="342" height="100" viewBox="0 0 342 100" fill="none" xmlns="http://www.w3.org/2000/svg">
<rect width="342" height="100" rx="5" fill="#0072BC"/>
<path d="M28.0668 31.6364H37.5483L47.5625 56.0682H47.9886L58.0028 31.6364H67.4844V68H60.027V44.3317H59.7251L50.3146 67.8224H45.2365L35.826 44.2429H35.5241V68H28.0668V31.6364ZM107.235 49.8182C107.235 53.7836 106.483 57.1572 104.98 59.9389C103.488 62.7206 101.452 64.8454 98.872 66.3132C96.3033 67.7692 93.4151 68.4972 90.2072 68.4972C86.9757 68.4972 84.0756 67.7633 81.5069 66.2955C78.9383 64.8277 76.9082 62.7029 75.4167 59.9212C73.9252 57.1394 73.1795 53.7718 73.1795 49.8182C73.1795 45.8527 73.9252 42.4792 75.4167 39.6974C76.9082 36.9157 78.9383 34.7969 81.5069 33.3409C84.0756 31.8731 86.9757 31.1392 90.2072 31.1392C93.4151 31.1392 96.3033 31.8731 98.872 33.3409C101.452 34.7969 103.488 36.9157 104.98 39.6974C106.483 42.4792 107.235 45.8527 107.235 49.8182ZM99.4402 49.8182C99.4402 47.2495 99.0555 45.0833 98.286 43.3196C97.5285 41.5559 96.4572 40.2183 95.0723 39.3068C93.6873 38.3954 92.0656 37.9396 90.2072 37.9396C88.3488 37.9396 86.7271 38.3954 85.3422 39.3068C83.9572 40.2183 82.88 41.5559 82.1106 43.3196C81.353 45.0833 80.9743 47.2495 80.9743 49.8182C80.9743 52.3868 81.353 54.553 82.1106 56.3168C82.88 58.0805 83.9572 59.4181 85.3422 60.3295C86.7271 61.241 88.3488 61.6967 90.2072 61.6967C92.0656 61.6967 93.6873 61.241 95.0723 60.3295C96.4572 59.4181 97.5285 58.0805 98.286 56.3168C99.0555 54.553 99.4402 52.3868 99.4402 49.8182ZM143.346 31.6364V68H136.705L120.885 45.1129H120.618V68H112.93V31.6364H119.677L135.373 54.5057H135.693V31.6364H143.346ZM183.114 49.8182C183.114 53.7836 182.362 57.1572 180.859 59.9389C179.367 62.7206 177.331 64.8454 174.751 66.3132C172.182 67.7692 169.294 68.4972 166.086 68.4972C162.855 68.4972 159.954 67.7633 157.386 66.2955C154.817 64.8277 152.787 62.7029 151.296 59.9212C149.804 57.1394 149.058 53.7718 149.058 49.8182C149.058 45.8527 149.804 42.4792 151.296 39.6974C152.787 36.9157 154.817 34.7969 157.386 33.3409C159.954 31.8731 162.855 31.1392 166.086 31.1392C169.294 31.1392 172.182 31.8731 174.751 33.3409C177.331 34.7969 179.367 36.9157 180.859 39.6974C182.362 42.4792 183.114 45.8527 183.114 49.8182ZM175.319 49.8182C175.319 47.2495 174.934 45.0833 174.165 43.3196C173.407 41.5559 172.336 40.2183 170.951 39.3068C169.566 38.3954 167.945 37.9396 166.086 37.9396C164.228 37.9396 162.606 38.3954 161.221 39.3068C159.836 40.2183 158.759 41.5559 157.99 43.3196C157.232 45.0833 156.853 47.2495 156.853 49.8182C156.853 52.3868 157.232 54.553 157.99 56.3168C158.759 58.0805 159.836 59.4181 161.221 60.3295C162.606 61.241 164.228 61.6967 166.086 61.6967C167.945 61.6967 169.566 61.241 170.951 60.3295C172.336 59.4181 173.407 58.0805 174.165 56.3168C174.934 54.553 175.319 52.3868 175.319 49.8182ZM188.809 68V31.6364H203.156C205.914 31.6364 208.263 32.1631 210.205 33.2166C212.146 34.2583 213.625 35.7083 214.643 37.5668C215.673 39.4134 216.188 41.544 216.188 43.9588C216.188 46.3736 215.667 48.5043 214.626 50.3509C213.584 52.1974 212.075 53.6357 210.098 54.6655C208.133 55.6953 205.754 56.2102 202.96 56.2102H193.816V50.049H201.717C203.197 50.049 204.416 49.7945 205.375 49.2855C206.346 48.7647 207.068 48.0485 207.541 47.1371C208.027 46.2138 208.269 45.1544 208.269 43.9588C208.269 42.7514 208.027 41.6979 207.541 40.7983C207.068 39.8868 206.346 39.1825 205.375 38.6854C204.404 38.1764 203.173 37.9219 201.682 37.9219H196.497V68H188.809ZM254.598 49.8182C254.598 53.7836 253.847 57.1572 252.343 59.9389C250.852 62.7206 248.816 64.8454 246.235 66.3132C243.667 67.7692 240.778 68.4972 237.57 68.4972C234.339 68.4972 231.439 67.7633 228.87 66.2955C226.302 64.8277 224.271 62.7029 222.78 59.9212C221.289 57.1394 220.543 53.7718 220.543 49.8182C220.543 45.8527 221.289 42.4792 222.78 39.6974C224.271 36.9157 226.302 34.7969 228.87 33.3409C231.439 31.8731 234.339 31.1392 237.57 31.1392C240.778 31.1392 243.667 31.8731 246.235 33.3409C248.816 34.7969 250.852 36.9157 252.343 39.6974C253.847 42.4792 254.598 45.8527 254.598 49.8182ZM246.803 49.8182C246.803 47.2495 246.419 45.0833 245.649 43.3196C244.892 41.5559 243.82 40.2183 242.436 39.3068C241.051 38.3954 239.429 37.9396 237.57 37.9396C235.712 37.9396 234.09 38.3954 232.705 39.3068C231.32 40.2183 230.243 41.5559 229.474 43.3196C228.716 45.0833 228.338 47.2495 228.338 49.8182C228.338 52.3868 228.716 54.553 229.474 56.3168C230.243 58.0805 231.32 59.4181 232.705 60.3295C234.09 61.241 235.712 61.6967 237.57 61.6967C239.429 61.6967 241.051 61.241 242.436 60.3295C243.82 59.4181 244.892 58.0805 245.649 56.3168C246.419 54.553 246.803 52.3868 246.803 49.8182ZM260.293 68V31.6364H267.982V61.6612H283.571V68H260.293ZM281.893 31.6364H290.505L298.797 47.2969H299.152L307.444 31.6364H316.055L302.792 55.1449V68H295.157V55.1449L281.893 31.6364Z" fill="white"/>
</svg>
