<svg width="104" height="104" viewBox="0 0 104 104" fill="none" xmlns="http://www.w3.org/2000/svg">
<circle cx="52" cy="52" r="44.5" fill="white" stroke="#0072BC" stroke-width="15"/>
<path d="M41.92 31.26C43.72 33.42 47.2 35.88 50.2 37.26C50.64 36.54 51.2 35.7 51.8 35.08C48.58 33.96 45.32 31.74 43.06 29H40.54C38.98 31.22 35.68 33.84 32.24 35.3C32.76 35.8 33.42 36.74 33.72 37.32C37 35.76 40.2 33.38 41.92 31.26ZM37.92 34.18V36.32H46V34.18H37.92ZM35.48 37.52V39.6H38.9V42.68H35.48V44.76H41.06V37.52H35.48ZM42.38 37.54V47.88H44.64V39.62H48.12V37.54H42.38ZM47.46 37.54V43.48C47.46 43.72 47.38 43.76 47.14 43.78C46.88 43.78 46.06 43.78 45.28 43.74C45.56 44.34 45.86 45.26 45.92 45.92C47.24 45.92 48.18 45.9 48.88 45.54C49.58 45.2 49.76 44.56 49.76 43.54V37.54H47.46ZM34.46 37.52V46.36H36.6V37.52H34.46ZM57.3 36.82H52.76V39.04H55V44.18H57.3V36.82ZM57.3 43.24H55.22C54.34 43.98 53.36 44.7 52.52 45.24L53.66 47.62C54.66 46.76 55.5 46 56.3 45.22C57.5 46.76 59.12 47.34 61.52 47.44C63.96 47.56 68.22 47.52 70.72 47.4C70.82 46.7 71.2 45.6 71.46 45.06C68.68 45.28 63.94 45.34 61.54 45.22C59.48 45.14 58.06 44.56 57.3 43.24ZM52.82 30.88C53.96 31.86 55.3 33.24 55.84 34.22L57.82 32.7C57.2 31.76 55.8 30.42 54.66 29.54L52.82 30.88ZM63.3 31.7V44.78H65.62V31.7H63.3ZM61.24 38.74H67.74V39.54H61.24V38.74ZM61.24 36.58H67.74V37.36H61.24V36.58ZM59.2 35.12V41H69.88V35.12H59.2ZM58.24 29.64V32.4H60.36V31.34H68.66V32.4H70.88V29.64H58.24ZM58.8 32.72V34.38H70.22V32.72H58.8ZM58.08 41.72V43.46H71.1V41.72H58.08ZM33.86 56.74V59.08H48.38V56.74H33.86ZM40.72 53.02V57.84H43.18V53.02H40.72ZM47.62 56.74V57.32C45.82 60.62 41.6 65.18 37.76 67.64C38.32 68.06 39.08 68.8 39.48 69.32C43.54 66.62 47.94 62 50.46 57.76L48.64 56.6L48.16 56.74H47.62ZM37.8 65.38L35.72 66.18C37.74 70.52 41.18 71.46 46.08 71.46H50.58C50.7 70.76 51.08 69.64 51.42 69.08C50.22 69.12 47.16 69.12 46.24 69.12C42.42 69.12 39.18 68.54 37.8 65.38ZM34.74 71.78C36.3 69.4 37.7 66.3 38.48 64.42L36.08 63.54C35.34 65.74 33.86 68.62 32.4 70.32L34.74 71.78ZM62.66 58.46V60.42H69.04V58.46H62.66ZM62.04 65.48V67.44H69.46V65.48H62.04ZM63.84 62.3V71.54H65.3V62.3H63.84ZM66.28 62.3V71.54H67.72V62.3H66.28ZM65.76 55.24C66.82 56.88 68.66 58.9 70.36 60.1C70.72 59.4 71.22 58.58 71.66 58.04C69.84 57.02 67.98 55.02 66.72 53.08H64.64C63.76 54.8 61.9 57.02 60.02 58.22C60.42 58.7 60.94 59.54 61.2 60.14C63.06 58.86 64.78 56.86 65.76 55.24ZM61.08 61.56V71.82H62.9V63.52H69.52V61.56H61.08ZM68.72 61.56V69.72C68.72 69.88 68.68 69.94 68.56 69.94C68.42 69.94 68.08 69.94 67.76 69.92C68 70.44 68.24 71.26 68.32 71.8C69.08 71.8 69.66 71.76 70.16 71.44C70.64 71.12 70.74 70.58 70.74 69.78V61.56H68.72ZM52.84 54.94V57H60.5V54.94H52.84ZM52.54 66.54V68.62H60.58V66.54H52.54ZM55.66 53.04V58.86H57.62V53.04H55.66ZM55.9 58.9V64.46H55.68V71.8H57.66V64.46H57.44V58.9H55.9ZM54.82 62.48H58.54V63.68H54.82V62.48ZM54.82 59.74H58.54V60.9H54.82V59.74ZM53.16 58.08V65.34H60.28V58.08H53.16Z" fill="#0072BC"/>
</svg>
